<svg width="64" height="64" viewBox="0 0 64 64" fill="none" xmlns="http://www.w3.org/2000/svg">
  <!-- Dark background -->
  <rect width="64" height="64" rx="14" fill="#0a0a0f"/>
  
  <!-- Gradient definitions -->
  <defs>
    <linearGradient id="grad1" x1="0%" y1="0%" x2="100%" y2="100%">
      <stop offset="0%" stop-color="#4785ff"/>
      <stop offset="100%" stop-color="#ff153c"/>
    </linearGradient>
    <linearGradient id="grad2" x1="100%" y1="0%" x2="0%" y2="100%">
      <stop offset="0%" stop-color="#ff153c"/>
      <stop offset="50%" stop-color="#4785ff"/>
    </linearGradient>
  </defs>
  
  <!-- Abstract geometric symbol combining K + S -->
  <!-- Main geometric shape -->
  <g transform="translate(32, 32)">
    <!-- Central diamond/rhombus -->
    <path d="M 0 -16 L 12 0 L 0 16 L -12 0 Z" 
          fill="none" 
          stroke="url(#grad1)" 
          stroke-width="2.5"
          opacity="0.9"/>
    
    <!-- Left angular K element -->
    <path d="M -12 0 L -20 -12 M -12 0 L -20 12" 
          stroke="url(#grad1)" 
          stroke-width="2.5" 
          stroke-linecap="round"
          opacity="0.95"/>
    
    <!-- Right curved S element -->
    <path d="M 12 -8 Q 18 -8 18 -2 Q 18 2 12 2 M 12 2 Q 18 2 18 8 Q 18 14 12 14" 
          stroke="url(#grad2)" 
          stroke-width="2.5" 
          stroke-linecap="round"
          fill="none"
          opacity="0.95"/>
    
    <!-- Center accent dot -->
    <circle cx="0" cy="0" r="2" fill="url(#grad1)"/>
    
    <!-- Decorative dots -->
    <circle cx="0" cy="-16" r="1.5" fill="#4785ff" opacity="0.7"/>
    <circle cx="12" cy="0" r="1.5" fill="#ff153c" opacity="0.7"/>
  </g>
</svg>
